<svg xmlns="http://www.w3.org/2000/svg" xmlns:xlink="http://www.w3.org/1999/xlink" width="19" height="19" viewBox="0 0 19 19">
  <defs>
    <clipPath id="clip-path">
      <path id="Mask" d="M0,3A3,3,0,0,1,3,0H16a3,3,0,0,1,3,3V16a3,3,0,0,1-3,3H3a3,3,0,0,1-3-3Z" fill="none"/>
    </clipPath>
    <clipPath id="clip-path-2">
      <path id="Mask-2" data-name="Mask" d="M11,5.5A5.5,5.5,0,1,1,5.5,0,5.5,5.5,0,0,1,11,5.5Z" fill="none"/>
    </clipPath>
  </defs>
  <g id="Rectangle_68" data-name="Rectangle 68">
    <path id="Mask-3" data-name="Mask" d="M0,3A3,3,0,0,1,3,0H16a3,3,0,0,1,3,3V16a3,3,0,0,1-3,3H3a3,3,0,0,1-3-3Z" fill="none"/>
    <g id="Rectangle_68-2" data-name="Rectangle 68" clip-path="url(#clip-path)">
      <path id="Rectangle_68-3" data-name="Rectangle 68" d="M0,3A3,3,0,0,1,3,0H16a3,3,0,0,1,3,3V16a3,3,0,0,1-3,3H3a3,3,0,0,1-3-3Z" fill="#2675ec"/>
      <path id="Rectangle_68-border" data-name="Rectangle 68-border" d="M3,21V17H16a1,1,0,0,0,1-1V3h4V16a5,5,0,0,1-5,5Zm-5-5V3H2V16a1,1,0,0,0,1,1v4A5,5,0,0,1-2,16ZM17,3a1,1,0,0,0-1-1H3V-2H16a5,5,0,0,1,5,5ZM-2,3A5,5,0,0,1,3-2V2A1,1,0,0,0,2,3Z" fill="#2675ec"/>
    </g>
  </g>
  <g id="Ellipse_21" data-name="Ellipse 21" transform="translate(4 4)">
    <path id="Mask-4" data-name="Mask" d="M11,5.5A5.5,5.5,0,1,1,5.5,0,5.5,5.5,0,0,1,11,5.5Z" fill="none"/>
    <g id="Ellipse_21-2" data-name="Ellipse 21" clip-path="url(#clip-path-2)">
      <path id="Ellipse_21-3" data-name="Ellipse 21" d="M11,5.5A5.5,5.5,0,1,1,5.5,0,5.5,5.5,0,0,1,11,5.5Z" fill="#fafafa"/>
      <path id="Ellipse_21-border" data-name="Ellipse 21-border" d="M5.5,9A3.5,3.5,0,0,0,9,5.5h4A7.5,7.5,0,0,1,5.5,13ZM-2,5.5H2A3.5,3.5,0,0,0,5.5,9v4A7.5,7.5,0,0,1-2,5.5Zm11,0a3.5,3.5,0,1,0-7,0H-2a7.5,7.5,0,1,1,15,0Z" fill="#2675ec"/>
    </g>
  </g>
</svg>
