<svg xmlns="http://www.w3.org/2000/svg" width="24.96" height="24" viewBox="0 0 24.96 24"><path d="M0,0H24.96V24H0Z" fill="none"/><g transform="translate(0 2)"><path d="M0,1.5A1.5,1.5,0,0,1,1.5,0h17A1.5,1.5,0,0,1,20,1.5h0A1.5,1.5,0,0,1,18.5,3H1.5A1.5,1.5,0,0,1,0,1.5Z"/><path d="M0,1.5A1.5,1.5,0,0,1,1.5,0h17A1.5,1.5,0,0,1,20,1.5h0A1.5,1.5,0,0,1,18.5,3H1.5A1.5,1.5,0,0,1,0,1.5Z" transform="translate(0 16)"/><path d="M0,1.5A1.5,1.5,0,0,1,1.5,0h17A1.5,1.5,0,0,1,20,1.5h0A1.5,1.5,0,0,1,18.5,3H1.5A1.5,1.5,0,0,1,0,1.5Z" transform="translate(4.96 8)"/></g></svg>