<svg xmlns="http://www.w3.org/2000/svg" xmlns:xlink="http://www.w3.org/1999/xlink" width="108" height="37" viewBox="0 0 108 37"><defs><clipPath id="a"><path d="M0,0H108V37H0Z" fill="none"/></clipPath><clipPath id="b"><path d="M0,2.453A2.52,2.52,0,0,1,2.582,0H15.493a2.52,2.52,0,0,1,2.582,2.453V12.787a2.52,2.52,0,0,1-2.582,2.453H2.582A2.52,2.52,0,0,1,0,12.787Z" fill="none"/></clipPath></defs><g clip-path="url(#a)"><g transform="translate(0 -0.113)"><g transform="translate(6 8.058)"><path d="M0,.64A.676.676,0,0,1,.707,0h11.98a.676.676,0,0,1,.707.64h0a.676.676,0,0,1-.707.64H.707A.676.676,0,0,1,0,.64Z" transform="translate(2.34 8.503)" fill="#172a6b"/><path d="M0,2.453A2.52,2.52,0,0,1,2.582,0H15.493a2.52,2.52,0,0,1,2.582,2.453V12.787a2.52,2.52,0,0,1-2.582,2.453H2.582A2.52,2.52,0,0,1,0,12.787Z" transform="translate(0 3.047)" fill="none"/><g transform="translate(0 3.047)" clip-path="url(#b)"><path d="M0,2.453A2.52,2.52,0,0,1,2.582,0H15.493a2.52,2.52,0,0,1,2.582,2.453V12.787a2.52,2.52,0,0,1-2.582,2.453H2.582A2.52,2.52,0,0,1,0,12.787Z" fill="none"/><path d="M3.873,17.691V15.239H16.784a1.26,1.26,0,0,0,1.291-1.227V3.679h2.582V14.012a3.779,3.779,0,0,1-3.873,3.679ZM0,14.012V3.679H2.582V14.012a1.26,1.26,0,0,0,1.292,1.227v2.452A3.779,3.779,0,0,1,0,14.012ZM18.075,3.679a1.26,1.26,0,0,0-1.291-1.227H3.873V0H16.784a3.78,3.78,0,0,1,3.873,3.679ZM0,3.679A3.78,3.78,0,0,1,3.873,0V2.452A1.26,1.26,0,0,0,2.582,3.679Z" transform="translate(-1.291 -1.226)" fill="#172a6b"/></g><path d="M0,.64A.64.64,0,0,1,.64,0H5.452a.64.64,0,0,1,.64.64h0a.64.64,0,0,1-.64.64H.64A.64.64,0,0,1,0,.64Z" transform="translate(12.061 6.092) rotate(-90)" fill="#172a6b"/><path d="M0,.64A.64.64,0,0,1,.64,0H5.452a.64.64,0,0,1,.64.64h0a.64.64,0,0,1-.64.64H.64A.64.64,0,0,1,0,.64Z" transform="translate(4.734 6.092) rotate(-90)" fill="#172a6b"/></g></g></g></svg>