<svg xmlns="http://www.w3.org/2000/svg" xmlns:xlink="http://www.w3.org/1999/xlink" width="147" height="19" viewBox="0 0 147 19"><defs><clipPath id="a"><path d="M0,0H147V19H0Z" transform="translate(0.092 0.59)" fill="none"/></clipPath><clipPath id="b"><path d="M0,.5A.5.5,0,0,1,.5,0H6.591a.5.5,0,0,1,.5.5h0a.5.5,0,0,1-.5.5H.5A.5.5,0,0,1,0,.5Z" fill="none"/></clipPath></defs><g transform="translate(-0.092 -0.59)" clip-path="url(#a)"><g transform="translate(0.59 1.59)"><path d="M0,.64A.64.64,0,0,1,.64,0H5.452a.64.64,0,0,1,.64.64h0a.64.64,0,0,1-.64.64H.64A.64.64,0,0,1,0,.64Z" transform="translate(8.105 15.035) rotate(-90)" fill="#5b6897"/><g transform="translate(5.1 14.04)"><path d="M0,.5A.5.5,0,0,1,.5,0H6.591a.5.5,0,0,1,.5.5h0a.5.5,0,0,1-.5.5H.5A.5.5,0,0,1,0,.5Z" fill="none"/><g clip-path="url(#b)"><path d="M0,.5A.5.5,0,0,1,.5,0H6.591a.5.5,0,0,1,.5.5h0a.5.5,0,0,1-.5.5H.5A.5.5,0,0,1,0,.5Z" fill="none"/><path d="M.5,2V2A1.5,1.5,0,0,1-1,.5H.5V-1H6.592A1.5,1.5,0,0,1,8.091.5h0A1.5,1.5,0,0,1,6.592,2ZM-1,.5A1.5,1.5,0,0,1,.5-1V.5Z" fill="#5b6897"/></g></g><g transform="translate(3.6)"><path d="M6.267,8.848a4.058,4.058,0,0,0,4.057-4.057V.5H.5v4.29h-1V-.5H10.823v0h.5V4.791A5.057,5.057,0,0,1,6.267,9.848Zm-1.709,1v-1H6.267v1ZM-.5,4.791h1A4.057,4.057,0,0,0,4.558,8.848v1A5.058,5.058,0,0,1-.5,4.791Z" fill="#5b6897"/></g><g transform="translate(14.435 6.095) rotate(-90)"><path d="M2.771,3.1A1.4,1.4,0,0,0,4.286,1.847V.5H.5V1.847h-1V-.5H4.786v0h.5V1.847A2.4,2.4,0,0,1,2.771,4.1Zm-.756,1v-1h.756v1ZM-.5,1.847h1A1.4,1.4,0,0,0,2.015,3.1v1A2.4,2.4,0,0,1-.5,1.847Z" transform="translate(4.79 3.6) rotate(180)" fill="#5b6897"/></g><g transform="translate(0 1.31)"><path d="M3.6,5.289v-.5h.5v.5Zm-1.847,0A2.4,2.4,0,0,1-.5,2.774V2.018A2.4,2.4,0,0,1,1.758-.5v1A1.4,1.4,0,0,0,.5,2.018v.756A1.4,1.4,0,0,0,1.758,4.289H3.1V.5H1.758v-1H3.6v0h.5V4.789H3.6v.5Z" fill="#5b6897"/></g></g></g></svg>