<svg xmlns="http://www.w3.org/2000/svg" width="17.252" height="20.36" viewBox="0 0 17.252 20.36"><g transform="translate(7.499 0.499)"><g transform="translate(-6.999 0.001)"><path d="M10.928,10.24a5.743,5.743,0,0,0,2.278-4.654A5.356,5.356,0,0,0,8.127,0,5.356,5.356,0,0,0,3.048,5.586,5.743,5.743,0,0,0,5.326,10.24,8.941,8.941,0,0,0,0,18.617v.745H16.253v-.745a8.941,8.941,0,0,0-5.325-8.377M4.4,5.586a3.928,3.928,0,0,1,3.724-4.1,3.928,3.928,0,0,1,3.724,4.1,3.928,3.928,0,0,1-3.724,4.1A3.928,3.928,0,0,1,4.4,5.586M1.389,17.872a7.062,7.062,0,0,1,6.738-6.7,7.062,7.062,0,0,1,6.738,6.7Z" transform="translate(-0.001 -0.001)" fill="#ffe200" stroke="#ffe200" stroke-linecap="round" stroke-linejoin="round" stroke-width="1"/></g></g></svg>