<svg xmlns="http://www.w3.org/2000/svg" xmlns:xlink="http://www.w3.org/1999/xlink" width="108" height="37" viewBox="0 0 108 37"><defs><clipPath id="a"><path d="M0,0H108V37H0Z" fill="none"/></clipPath><clipPath id="b"><path d="M0,2.4A2.4,2.4,0,0,1,2.4,0h12a2.4,2.4,0,0,1,2.4,2.4V12.512a2.4,2.4,0,0,1-2.4,2.4H2.4a2.4,2.4,0,0,1-2.4-2.4Z" fill="none"/></clipPath></defs><g clip-path="url(#a)"><path d="M0,.64A.64.64,0,0,1,.64,0H11.479a.64.64,0,0,1,.64.64h0a.64.64,0,0,1-.64.64H.64A.64.64,0,0,1,0,.64Z" transform="translate(8.34 16.61)" fill="#172a6b"/><g transform="translate(0 0.269)"><path d="M0,2.4A2.4,2.4,0,0,1,2.4,0h12a2.4,2.4,0,0,1,2.4,2.4V12.512a2.4,2.4,0,0,1-2.4,2.4H2.4a2.4,2.4,0,0,1-2.4-2.4Z" transform="translate(6 11.05)" fill="none"/><g transform="translate(6 11.05)" clip-path="url(#b)"><path d="M0,2.4A2.4,2.4,0,0,1,2.4,0h12a2.4,2.4,0,0,1,2.4,2.4V12.512a2.4,2.4,0,0,1-2.4,2.4H2.4a2.4,2.4,0,0,1-2.4-2.4Z" fill="none"/><path d="M2.4,16.112v-2.4h12a1.2,1.2,0,0,0,1.2-1.2V2.4H18V12.512a3.6,3.6,0,0,1-3.6,3.6Zm-3.6-3.6V2.4H1.2V12.512a1.2,1.2,0,0,0,1.2,1.2v2.4A3.6,3.6,0,0,1-1.2,12.512ZM15.6,2.4a1.2,1.2,0,0,0-1.2-1.2H2.4V-1.2h12A3.6,3.6,0,0,1,18,2.4Zm-16.8,0A3.6,3.6,0,0,1,2.4-1.2V1.2A1.2,1.2,0,0,0,1.2,2.4Z" fill="#172a6b"/></g><path d="M0,.64A.64.64,0,0,1,.64,0H5.452a.64.64,0,0,1,.64.64h0a.64.64,0,0,1-.64.64H.64A.64.64,0,0,1,0,.64Z" transform="translate(17.145 14.095) rotate(-90)" fill="#172a6b"/><path d="M0,.64A.64.64,0,0,1,.64,0H5.452a.64.64,0,0,1,.64.64h0a.64.64,0,0,1-.64.64H.64A.64.64,0,0,1,0,.64Z" transform="translate(10.375 14.095) rotate(-90)" fill="#172a6b"/></g><text transform="translate(30)" fill="#5b6897" font-size="11" font-family="Poppins-Regular, Poppins" letter-spacing="0.049em"><tspan x="0" y="12">9 May 2021</tspan><tspan x="0" y="29">19.45</tspan></text></g></svg>