<svg xmlns="http://www.w3.org/2000/svg" width="153.365" height="143.345" viewBox="0 0 153.365 143.345">
  <g id="Layer_4" data-name="Layer 4" transform="translate(-2.05 -34.94)" style="isolation: isolate">
    <circle id="Ellipse_61" data-name="Ellipse 61" cx="12.89" cy="12.89" r="12.89" transform="translate(111.57 34.94)" fill="#ffe200"/>
    <path id="Path_466" data-name="Path 466" d="M91.05,65.23l7.34-7.34a3.93,3.93,0,0,0-.61-6.06L83,42a3.92,3.92,0,0,0-4.87.43L47.29,71.66a3.94,3.94,0,0,0-1.22,2.78C46,77.81,46.9,84.91,55.72,85a4.07,4.07,0,0,0,2.84-1.09L78.7,64.71a3.91,3.91,0,0,1,4.7-.55l2.88,1.69A3.93,3.93,0,0,0,91.05,65.23Z" transform="translate(3 3.266)" fill="#ffe200"/>
    <path id="Path_467" data-name="Path 467" d="M66.84,102.84l37.9-37.46a7.57,7.57,0,0,1,5.32-2.18h.39a7.57,7.57,0,0,1,5.86,2.8l1,1.25A7.58,7.58,0,0,1,119,72V82.8a7.56,7.56,0,0,0,7.44,7.57l20.55.31a7.46,7.46,0,0,1,5.94,3c2.17,3,4.25,7.86.09,12.51a7.41,7.41,0,0,1-5.54,2.4H111a9,9,0,0,1-6.7-3.88,7.68,7.68,0,0,0-11.52-1.56l-.2.18a7.57,7.57,0,0,0-.4,10.85L108,130.77a7.55,7.55,0,0,1,2.1,5.23v1.88a7.54,7.54,0,0,1-2.22,5.35L75,176.06a7.38,7.38,0,0,1-6,2.19c-3.44-.39-8.06-2-8.88-7.94a7.32,7.32,0,0,1,2.11-6L86.68,139.1a4.65,4.65,0,0,0,1.14-4.56h0a4.71,4.71,0,0,0-1.33-2.14L67,114.56a7.56,7.56,0,0,1-2.45-5.91v-.77a7.61,7.61,0,0,1,2.29-5.04Z" fill="#ffe200"/>
    <path id="Path_468" data-name="Path 468" d="M56.52,114s2.09,12.24,11.28,12.89L19.63,175.41a8.48,8.48,0,0,1-9.2,2,9,9,0,0,1-5.73-7.08,7.85,7.85,0,0,1,2.21-6.88Z" transform="translate(4.205 -3)" fill="#ffe200"/>
    <rect id="Rectangle_153" data-name="Rectangle 153" width="31.26" height="10.53" rx="5.17" transform="translate(9.63 47.83)" fill="#ffe200"/>
    <rect id="Rectangle_154" data-name="Rectangle 154" width="28.12" height="10.53" rx="5.15" transform="translate(2.05 66.44)" fill="#ffe200"/>
    <rect id="Rectangle_155" data-name="Rectangle 155" width="31.26" height="10.53" rx="4.52" transform="translate(9.14 85.05)" fill="#ffe200"/>
  </g>
</svg>
