<svg xmlns="http://www.w3.org/2000/svg" xmlns:xlink="http://www.w3.org/1999/xlink" width="24.708" height="22.023" viewBox="0 0 24.708 22.023"><defs><clipPath id="a"><rect width="20.357" height="17.999" fill="none" stroke="#ffe241" stroke-linecap="round" stroke-linejoin="round" stroke-width="2"/></clipPath></defs><g transform="translate(0 0.35)"><g transform="translate(0 3.674)" clip-path="url(#a)"><path d="M14.871,11.737,20.616,1.5H1.5L9.127,8.157,11.2,18.277l3.67-6.54" transform="translate(-0.879 -0.889)" fill="none" stroke="#ffe241" stroke-linecap="round" stroke-linejoin="round" stroke-width="2"/><line y1="6.657" x2="11.489" transform="translate(8.248 0.611)" fill="none" stroke="#ffe241" stroke-linecap="round" stroke-linejoin="round" stroke-width="2"/></g><g transform="translate(-357.027 -130.826)"><g transform="translate(368.293 130.535)"><g transform="translate(6.096 3.192)"><path d="M116.645,114.005a2.122,2.122,0,1,0,1.957,2.116A2.043,2.043,0,0,0,116.645,114.005Zm0,3.823a1.712,1.712,0,1,1,1.579-1.707A1.649,1.649,0,0,1,116.645,117.828Z" transform="translate(-114.688 -114.005)" fill="#fff" stroke="#fff" stroke-width="0.7"/></g></g><g transform="translate(375.092 134.494)"><path d="M180.746,178.859a1.358,1.358,0,1,0,1.2,1.349A1.284,1.284,0,0,0,180.746,178.859Zm0,2.216a.873.873,0,1,1,.774-.867A.826.826,0,0,1,180.746,181.075Z" transform="translate(-179.541 -178.859)" fill="#fff" stroke="#fff" stroke-width="0.7"/></g><g transform="translate(371.206 130.826)"><path d="M9.922,3.6H8.905a1.835,1.835,0,0,0-.107-.26l.716-.708a.266.266,0,0,0,0-.379L7.885.651a.274.274,0,0,0-.384,0l-.719.7a1.946,1.946,0,0,0-.267-.107V.254A.247.247,0,0,0,6.257,0H3.95a.27.27,0,0,0-.285.254v.981c-.081.033-.174.07-.263.109L2.7.65a.273.273,0,0,0-.382,0L.685,2.255a.264.264,0,0,0,0,.377l.7.7a2.195,2.195,0,0,0-.113.274H.285A.27.27,0,0,0,0,3.857V6.126a.293.293,0,0,0,.285.28h.99c.034.08.072.173.113.26l-.7.688a.261.261,0,0,0,0,.375l1.633,1.6a.275.275,0,0,0,.384,0l.7-.694c.089.039.182.076.263.109v.981a.293.293,0,0,0,.285.28H6.257a.269.269,0,0,0,.258-.28V8.738a1.946,1.946,0,0,0,.267-.107l.716.708a.288.288,0,0,0,.2.084h0a.28.28,0,0,0,.192-.084L9.516,7.732a.267.267,0,0,0,0-.38l-.717-.7c.038-.083.074-.167.106-.247H9.922a.269.269,0,0,0,.258-.28V3.857A.247.247,0,0,0,9.922,3.6ZM9.637,5.872H8.712a.265.265,0,0,0-.259.179,3.387,3.387,0,0,1-.224.53.261.261,0,0,0,.049.309l.661.649L7.693,8.767l-.657-.648a.275.275,0,0,0-.317-.048,3.628,3.628,0,0,1-.551.224.274.274,0,0,0-.195.254v.927H4.208V8.557A.261.261,0,0,0,4.024,8.3a3.51,3.51,0,0,1-.55-.224.272.272,0,0,0-.314.048l-.65.639L1.26,7.539,1.908,6.9a.264.264,0,0,0,.049-.312,3.356,3.356,0,0,1-.231-.539.265.265,0,0,0-.259-.179H.543V4.137h.925a.277.277,0,0,0,.259-.193A3.461,3.461,0,0,1,1.957,3.4a.266.266,0,0,0-.049-.314l-.647-.637L2.51,1.217l.651.639a.275.275,0,0,0,.316.048,3.478,3.478,0,0,1,.547-.224.261.261,0,0,0,.183-.255V.534H5.972v.9a.274.274,0,0,0,.195.254,3.587,3.587,0,0,1,.547.224.277.277,0,0,0,.319-.048l.658-.647L8.938,2.443l-.661.65a.264.264,0,0,0-.049.311,3.5,3.5,0,0,1,.224.541.277.277,0,0,0,.259.193h.925V5.872Z" fill="#fff" stroke="#fff" stroke-width="0.7"/></g></g></g></svg>