<svg id="Group_141" data-name="Group 141" xmlns="http://www.w3.org/2000/svg" xmlns:xlink="http://www.w3.org/1999/xlink" width="24" height="23" viewBox="0 0 24 23">
  <defs>
    <clipPath id="clip-path">
      <rect id="Property_1_ph:chat-circle-dots-fill_Background_Mask_" data-name="Property 1=ph:chat-circle-dots-fill (Background/Mask)" width="24" height="23" fill="none"/>
    </clipPath>
  </defs>
  <rect id="Property_1_ph:chat-circle-dots-fill_Background_Mask_2" data-name="Property 1=ph:chat-circle-dots-fill (Background/Mask)" width="24" height="23" fill="none"/>
  <g id="Mask_Group_141" data-name="Mask Group 141" clip-path="url(#clip-path)">
    <path id="Vector" d="M9.75,18.687c-.149,0-.3,0-.449-.01a10.126,10.126,0,0,1-4.237-1.14L2.251,18.3a1.552,1.552,0,0,1-.788.015,1.5,1.5,0,0,1-.685-.374,1.441,1.441,0,0,1-.389-.661A1.389,1.389,0,0,1,.4,16.522l.8-2.686a9.005,9.005,0,0,1,.16-9.254A9.586,9.586,0,0,1,4.923,1.226,10.123,10.123,0,0,1,14.039.953a9.721,9.721,0,0,1,3.414,2.663A9.2,9.2,0,0,1,19.3,7.445a9,9,0,0,1-.1,4.217,9.277,9.277,0,0,1-2.026,3.745,9.807,9.807,0,0,1-3.539,2.509A10.058,10.058,0,0,1,9.75,18.687Zm4.5-10.422a1.182,1.182,0,0,0-.219.021,1.15,1.15,0,0,0-.576.295,1.061,1.061,0,0,0-.308.552,1.042,1.042,0,0,0,.064.624,1.093,1.093,0,0,0,.415.484,1.155,1.155,0,0,0,.625.181,1.14,1.14,0,0,0,.8-.316,1.063,1.063,0,0,0,.329-.762,1.037,1.037,0,0,0-.19-.6,1.111,1.111,0,0,0-.5-.4A1.174,1.174,0,0,0,14.25,8.266Zm-4.5,0a1.182,1.182,0,0,0-.219.021,1.15,1.15,0,0,0-.576.295,1.06,1.06,0,0,0-.308.552,1.042,1.042,0,0,0,.064.624,1.093,1.093,0,0,0,.415.484,1.155,1.155,0,0,0,.625.181,1.14,1.14,0,0,0,.8-.316,1.063,1.063,0,0,0,.329-.762,1.037,1.037,0,0,0-.19-.6,1.111,1.111,0,0,0-.5-.4A1.174,1.174,0,0,0,9.75,8.266Zm-4.5,0a1.182,1.182,0,0,0-.219.021,1.15,1.15,0,0,0-.576.295,1.06,1.06,0,0,0-.308.552,1.042,1.042,0,0,0,.064.624,1.093,1.093,0,0,0,.415.484,1.155,1.155,0,0,0,.625.181,1.14,1.14,0,0,0,.8-.316,1.063,1.063,0,0,0,.329-.762,1.037,1.037,0,0,0-.19-.6,1.111,1.111,0,0,0-.5-.4A1.174,1.174,0,0,0,5.25,8.266Z" transform="translate(2.249 2.156)" fill="#ffe200"/>
  </g>
</svg>
